# This file uses centimeters as units for non-parametric coordinates.

mtllib concave.mtl
g default
v 1.743541 0.000000 0.889288
v -1.743541 0.000000 0.889288
v 1.743541 4.588889 0.889288
v -1.743541 4.588889 0.889288
v 1.734237 4.588889 0.912209
v -1.734237 4.588889 0.912209
v 1.734237 0.000000 0.912209
v -1.734237 0.000000 0.912209
v 1.313818 0.000000 0.460336
v 1.294515 0.000000 0.519082
v 1.294515 4.588889 0.519082
v 1.313818 4.588889 0.460336
v 0.876971 0.000000 0.172863
v 0.861919 0.000000 0.256019
v 0.861919 4.588889 0.256019
v 0.876971 4.588889 0.172863
v 0.438442 0.000000 0.010376
v 0.431001 0.000000 0.106962
v 0.431001 4.588889 0.106962
v 0.438442 4.588889 0.010376
v -0.000000 0.000000 -0.057711
v -0.000000 0.000000 0.057711
v -0.000000 4.588889 0.057711
v -0.000000 4.588889 -0.057711
v -0.438443 0.000000 0.010376
v -0.431002 0.000000 0.106963
v -0.431002 4.588889 0.106963
v -0.438443 4.588889 0.010376
v -0.876970 0.000000 0.172863
v -0.861918 0.000000 0.256019
v -0.861918 4.588889 0.256019
v -0.876970 4.588889 0.172863
v -1.313818 0.000000 0.460336
v -1.294515 0.000000 0.519082
v -1.294515 4.588889 0.519082
v -1.313818 4.588889 0.460336
vt 0.375000 0.000000
vt 0.625000 0.000000
vt 0.375000 0.250000
vt 0.625000 0.250000
vt 0.375000 0.500000
vt 0.625000 0.500000
vt 0.375000 0.750000
vt 0.625000 0.750000
vt 0.375000 1.000000
vt 0.625000 1.000000
vt 0.875000 0.000000
vt 0.875000 0.250000
vt 0.125000 0.000000
vt 0.125000 0.250000
vt 0.406250 0.000000
vt 0.406250 1.000000
vt 0.406250 0.750000
vt 0.406250 0.500000
vt 0.406250 0.250000
vt 0.437500 0.000000
vt 0.437500 1.000000
vt 0.437500 0.750000
vt 0.437500 0.500000
vt 0.437500 0.250000
vt 0.468750 0.000000
vt 0.468750 1.000000
vt 0.468750 0.750000
vt 0.468750 0.500000
vt 0.468750 0.250000
vt 0.500000 0.000000
vt 0.500000 1.000000
vt 0.500000 0.750000
vt 0.500000 0.500000
vt 0.500000 0.250000
vt 0.531250 0.000000
vt 0.531250 1.000000
vt 0.531250 0.750000
vt 0.531250 0.500000
vt 0.531250 0.250000
vt 0.562500 0.000000
vt 0.562500 1.000000
vt 0.562500 0.750000
vt 0.562500 0.500000
vt 0.562500 0.250000
vt 0.593750 0.000000
vt 0.593750 1.000000
vt 0.593750 0.750000
vt 0.593750 0.500000
vt 0.593750 0.250000
vn -0.637178 0.000000 -0.770716
vn -0.637178 0.000000 -0.770716
vn -0.706471 0.000000 -0.707742
vn -0.706471 0.000000 -0.707742
vn 0.000000 1.000000 0.000003
vn 0.000000 1.000000 0.000005
vn 0.000000 1.000000 0.000000
vn 0.000000 1.000000 0.000000
vn 0.601143 0.000000 0.799141
vn 0.601143 0.000000 0.799141
vn 0.666504 0.000000 0.745501
vn 0.666504 0.000000 0.745501
vn 0.000000 -1.000000 0.000000
vn 0.000000 -1.000000 0.000000
vn 0.000000 -1.000000 0.000000
vn 0.000000 -1.000000 0.000000
vn -0.926583 0.000000 0.376091
vn -0.926583 0.000000 0.376091
vn -0.926583 0.000000 0.376091
vn -0.926583 0.000000 0.376091
vn 0.926583 0.000000 0.376091
vn 0.926583 0.000000 0.376091
vn 0.926583 0.000000 0.376091
vn 0.926583 0.000000 0.376091
vn 0.000000 -1.000000 0.000000
vn 0.000000 -1.000000 0.000000
vn 0.000000 -1.000000 0.000000
vn 0.000000 -1.000000 0.000000
vn -0.666504 0.000000 0.745501
vn -0.601143 0.000000 0.799141
vn -0.601143 0.000000 0.799141
vn -0.666504 0.000000 0.745501
vn 0.000000 1.000000 0.000004
vn 0.000000 1.000000 0.000004
vn 0.000000 1.000000 0.000004
vn 0.000000 1.000000 0.000004
vn 0.706471 0.000000 -0.707742
vn 0.637178 0.000000 -0.770716
vn 0.637178 0.000000 -0.770716
vn 0.706471 0.000000 -0.707742
vn 0.000000 -1.000000 0.000000
vn 0.000000 -1.000000 0.000000
vn -0.430719 0.000000 0.902486
vn -0.430719 0.000000 0.902486
vn 0.000000 1.000000 -0.000001
vn 0.000000 1.000000 0.000000
vn 0.457161 0.000000 -0.889384
vn 0.457161 0.000000 -0.889384
vn 0.000000 -1.000000 0.000000
vn 0.000000 -1.000000 0.000000
vn -0.224219 0.000000 0.974539
vn -0.224219 0.000000 0.974539
vn 0.000000 1.000000 0.000000
vn 0.000000 1.000000 -0.000000
vn 0.254279 0.000000 -0.967131
vn 0.254279 0.000000 -0.967131
vn 0.000000 -1.000000 0.000000
vn 0.000000 -1.000000 0.000000
vn 0.000000 0.000000 1.000000
vn 0.000000 0.000000 1.000000
vn 0.000000 1.000000 0.000000
vn 0.000000 1.000000 -0.000000
vn -0.000000 0.000000 -1.000000
vn -0.000000 0.000000 -1.000000
vn 0.000000 -1.000000 0.000000
vn 0.000000 -1.000000 0.000000
vn 0.224220 0.000000 0.974539
vn 0.224220 0.000000 0.974539
vn 0.000000 1.000000 -0.000003
vn 0.000000 1.000000 -0.000003
vn -0.254279 0.000000 -0.967131
vn -0.254279 0.000000 -0.967131
vn 0.000000 -1.000000 0.000000
vn 0.000000 -1.000000 0.000000
vn 0.430720 0.000000 0.902486
vn 0.430720 0.000000 0.902486
vn 0.000000 1.000000 0.000001
vn 0.000000 1.000000 0.000002
vn -0.457161 0.000000 -0.889384
vn -0.457161 0.000000 -0.889384
s 1
g concave
usemtl initialShadingGroup
f 36/49/1 33/45/2 2/2/3 4/4/4
s 2
f 35/48/5 36/49/6 4/4/7 6/6/8
s 3
f 34/47/9 35/48/10 6/6/11 8/8/12
s 4
f 33/46/13 34/47/14 8/8/15 2/10/16
s off
f 2/2/17 8/11/18 6/12/19 4/4/20
f 7/13/21 1/1/22 3/3/23 5/14/24
s 4
f 7/7/25 10/17/26 9/16/27 1/9/28
s 3
f 5/5/29 11/18/30 10/17/31 7/7/32
s 2
f 3/3/33 12/19/34 11/18/35 5/5/36
s 1
f 1/1/37 9/15/38 12/19/39 3/3/40
s 4
f 9/16/27 10/17/26 14/22/41 13/21/42
s 3
f 10/17/31 11/18/30 15/23/43 14/22/44
s 2
f 11/18/35 12/19/34 16/24/45 15/23/46
s 1
f 12/19/39 9/15/38 13/20/47 16/24/48
s 4
f 13/21/42 14/22/41 18/27/49 17/26/50
s 3
f 14/22/44 15/23/43 19/28/51 18/27/52
s 2
f 15/23/46 16/24/45 20/29/53 19/28/54
s 1
f 16/24/48 13/20/47 17/25/55 20/29/56
s 4
f 17/26/50 18/27/49 22/32/57 21/31/58
s 3
f 18/27/52 19/28/51 23/33/59 22/32/60
s 2
f 19/28/54 20/29/53 24/34/61 23/33/62
s 1
f 20/29/56 17/25/55 21/30/63 24/34/64
s 4
f 21/31/58 22/32/57 26/37/65 25/36/66
s 3
f 22/32/60 23/33/59 27/38/67 26/37/68
s 2
f 23/33/62 24/34/61 28/39/69 27/38/70
s 1
f 24/34/64 21/30/63 25/35/71 28/39/72
s 4
f 25/36/66 26/37/65 30/42/73 29/41/74
s 3
f 26/37/68 27/38/67 31/43/75 30/42/76
s 2
f 27/38/70 28/39/69 32/44/77 31/43/78
s 1
f 28/39/72 25/35/71 29/40/79 32/44/80
s 4
f 29/41/74 30/42/73 34/47/14 33/46/13
s 3
f 30/42/76 31/43/75 35/48/10 34/47/9
s 2
f 31/43/78 32/44/77 36/49/6 35/48/5
s 1
f 32/44/80 29/40/79 33/45/2 36/49/1
